<?xml version="1.0" encoding="utf-8"?>
<!-- Generator: Adobe Illustrator 26.3.1, SVG Export Plug-In . SVG Version: 6.00 Build 0)  -->
<svg version="1.1" id="레이어_1" xmlns="http://www.w3.org/2000/svg" xmlns:xlink="http://www.w3.org/1999/xlink" x="0px"
	 y="0px" viewBox="0 0 960 540" style="enable-background:new 0 0 960 540;" xml:space="preserve">
<style type="text/css">
	.st0{clip-path:url(#SVGID_00000129206575206663449100000008088960341449583492_);}
	.st1{fill-rule:evenodd;clip-rule:evenodd;fill-opacity:0;}
	.st2{fill:none;stroke:#595959;stroke-linejoin:round;stroke-miterlimit:10;}
</style>
<g>
	<defs>
		<rect id="SVGID_1_" y="-107" width="960" height="540"/>
	</defs>
	<clipPath id="SVGID_00000116209544473115160460000002947252652050642612_">
		<use xlink:href="#SVGID_1_"  style="overflow:visible;"/>
	</clipPath>
	<g style="clip-path:url(#SVGID_00000116209544473115160460000002947252652050642612_);">
		<path class="st1" d="M0-107h960v540H0V-107z"/>
		<path class="st1" d="M61.3,40.2h406v301.6h-406L61.3,40.2z"/>
		<path class="st1" d="M467.3,41.7h406v301.6h-406V41.7z"/>
		<path class="st1" d="M468,9.1c0,7.8-50.9,11.7-101.8,15.6c-50.9,3.9-101.8,7.8-101.8,15.6"/>
		<path class="st2" d="M468,9.1c0,7.8-50.9,11.7-101.8,15.6c-50.9,3.9-101.8,7.8-101.8,15.6"/>
		<path class="st1" d="M468,9.1c0,8.2,50.6,12.2,101.2,16.3c50.6,4.1,101.2,8.2,101.2,16.3"/>
		<path class="st2" d="M468,9.1c0,8.2,50.6,12.2,101.2,16.3c50.6,4.1,101.2,8.2,101.2,16.3"/>
		<path class="st1" d="M226.1,205c0-12.5,107.4-25,214.8-25s214.8,12.5,214.8,25.1"/>
		<path class="st2" d="M226.1,205c0-12.5,107.4-25,214.8-25s214.8,12.5,214.8,25.1"/>
		<path class="st1" d="M148.9,205c0-12.5,108.7-25,217.3-25s217.3,12.5,217.3,25.1"/>
		<path class="st2" d="M148.9,205c0-12.5,108.7-25,217.3-25s217.3,12.5,217.3,25.1"/>
		<path class="st1" d="M148.9,292.5c0,56.9,31.3,102.8,62.6,113.9s62.6-12.5,62.6-25"/>
		<path class="st2" d="M148.9,292.5c0,56.9,31.3,102.8,62.6,113.9s62.6-12.5,62.6-25"/>
		<path class="st1" d="M148.9,292.5c0,56.9,47.4,102.8,94.8,113.9s94.8-12.5,94.8-25"/>
		<path class="st2" d="M148.9,292.5c0,56.9,47.4,102.8,94.8,113.9s94.8-12.5,94.8-25"/>
		<path class="st1" d="M148.9,292.5c0,12.5,19.3,25,38.6,25s38.6-12.5,38.6-24.9"/>
		<path class="st2" d="M148.9,292.5c0,12.5,19.3,25,38.6,25s38.6-12.5,38.6-24.9"/>
		<path class="st1" d="M583.5,292.5c0,12.5,18,25,36.1,25s36.1-12.5,36.1-24.9"/>
		<path class="st2" d="M583.5,292.5c0,12.5,18,25,36.1,25s36.1-12.5,36.1-24.9"/>
		<path class="st1" d="M818.4,265.1c0,70.6-120,126.7-240,141.2c-120,14.5-240-12.5-240-25"/>
		<path class="st2" d="M818.4,265.1c0,70.6-120,126.7-240,141.2c-120,14.5-240-12.5-240-25"/>
		<path class="st1" d="M579.6,9.1c0,49,19,73.5,38,98s38,49,38,98"/>
		<path class="st2" d="M579.6,9.1c0,49,19,73.5,38,98s38,49,38,98"/>
		<path class="st1" d="M226.1,292.5c0,57,28.1,102.8,56.1,113.9c28.1,11.1,56.1-12.5,56.1-25"/>
		<path class="st2" d="M226.1,292.5c0,57,28.1,102.8,56.1,113.9c28.1,11.1,56.1-12.5,56.1-25"/>
		<path class="st1" d="M655.6,292.5c0,4-1.5-0.4-4.7,8c-3.2,8.4-8.1,29.6-4.7,52.9c3.4,23.3,15.1,48.7,28.6,52.9
			c13.4,4.3,28.6-12.5,28.6-25"/>
		<path class="st2" d="M655.6,292.5c0,4-1.5-0.4-4.7,8c-3.2,8.4-8.1,29.6-4.7,52.9c3.4,23.3,15.1,48.7,28.6,52.9
			c13.4,4.3,28.6-12.5,28.6-25"/>
		<path class="st1" d="M655.6,292.5c0,12.5,40.7,28.4,81.4,25s81.4-26.2,81.4-52.3"/>
		<path class="st2" d="M655.6,292.5c0,12.5,40.7,28.4,81.4,25s81.4-26.2,81.4-52.3"/>
		<path class="st1" d="M429.3-78.4h77.2V9.1h-77.2V-78.4z"/>
		<path class="st1" d="M547.5-63.8h64.3V9.1h-64.3V-63.8z"/>
		<path class="st1" d="M110.3,205h77.2v87.5h-77.2V205z"/>
		<path class="st1" d="M619.6,205h72.1v87.5h-72.1V205z"/>
		<path class="st1" d="M547.5,205h72.1v87.5h-72.1V205z"/>
		<path class="st1" d="M772.9,150.6h90.9v114.6h-90.9V150.6z"/>
		<path class="st1" d="M187.5,205h77.2v87.5h-77.2V205z"/>
		<path class="st1" d="M306.2,308.5h64.3v72.9h-64.3V308.5z"/>
		<path class="st1" d="M241.9,308.5h64.3v72.9h-64.3V308.5z"/>
		<path class="st1" d="M671.3,308.5h64.3v72.9h-64.3V308.5z"/>
	</g>
</g>
</svg>
